<svg width="50" height="50" viewBox="0 0 50 50" fill="none" xmlns="http://www.w3.org/2000/svg">
<path d="M41.7969 24.9674C41.7969 24.3815 41.6016 23.8932 41.2109 23.5026L29.4271 11.7188L26.4648 8.75651C26.0742 8.36588 25.5859 8.17057 25 8.17057C24.4141 8.17057 23.9258 8.36588 23.5352 8.75651L20.5729 11.7188L8.78906 23.5026C8.39844 23.8932 8.20312 24.3815 8.20312 24.9674C8.20312 25.5534 8.39844 26.0417 8.78906 26.4323L11.7513 29.3945C12.1419 29.7852 12.6302 29.9805 13.2161 29.9805C13.8021 29.9805 14.2904 29.7852 14.681 29.3945L20.8333 23.2422V39.5833C20.8333 40.1476 21.0395 40.6358 21.4518 41.0482C21.8641 41.4605 22.3524 41.6667 22.9167 41.6667H27.0833C27.6476 41.6667 28.1358 41.4605 28.5482 41.0482C28.9605 40.6358 29.1667 40.1476 29.1667 39.5833V23.2422L35.319 29.3945C35.7313 29.8069 36.2196 30.013 36.7839 30.013C37.3481 30.013 37.8364 29.8069 38.2487 29.3945L41.2109 26.4323C41.6016 26.0417 41.7969 25.5534 41.7969 24.9674ZM50 25C50 29.5356 48.8824 33.7185 46.6471 37.5488C44.4119 41.3791 41.3791 44.4119 37.5488 46.6471C33.7185 48.8824 29.5356 50 25 50C20.4644 50 16.2815 48.8824 12.4512 46.6471C8.62088 44.4119 5.58811 41.3791 3.35286 37.5488C1.11762 33.7185 0 29.5356 0 25C0 20.4644 1.11762 16.2815 3.35286 12.4512C5.58811 8.62088 8.62088 5.58811 12.4512 3.35286C16.2815 1.11762 20.4644 0 25 0C29.5356 0 33.7185 1.11762 37.5488 3.35286C41.3791 5.58811 44.4119 8.62088 46.6471 12.4512C48.8824 16.2815 50 20.4644 50 25Z" fill="#1B262C"/>
</svg>
