<svg width="120" height="120" viewBox="0 0 120 120" fill="none" xmlns="http://www.w3.org/2000/svg">
<path d="M112.174 0H7.82609C3.5118 0 0 3.5118 0 7.82609V112.174C0 116.488 3.5118 120 7.82609 120H112.174C116.488 120 120 116.488 120 112.174V7.82609C120 3.5118 116.488 0 112.174 0ZM114.783 112.174C114.783 113.613 113.611 114.783 112.174 114.783H7.82609C6.38927 114.783 5.21739 113.613 5.21739 112.174V7.82609C5.21739 6.38927 6.38927 5.21739 7.82609 5.21739H112.174C113.611 5.21739 114.783 6.38927 114.783 7.82609V112.174Z" fill="#1B262C"/>
<path d="M70.4348 20.8696H33.913C32.4736 20.8696 31.3043 22.039 31.3043 23.4783V96.5218C31.3043 97.965 32.4736 99.1305 33.913 99.1305H70.4348C80.504 99.1305 88.6956 90.9363 88.6956 80.8696V75.6522C88.6956 69.0184 85.1405 63.1985 79.834 60.0001C85.1405 56.8016 88.6956 50.9817 88.6956 44.3479V39.1305C88.6956 29.0613 80.504 20.8696 70.4348 20.8696ZM83.4782 75.6522V80.8696C83.4782 88.0614 77.6265 93.9131 70.4348 93.9131H36.5217V62.6088H70.4348C77.6265 62.6088 83.4782 68.4605 83.4782 75.6522ZM83.4782 44.3479C83.4782 51.5396 77.6265 57.3914 70.4348 57.3914H36.5217V26.087H70.4348C77.6265 26.087 83.4782 31.9388 83.4782 39.1305V44.3479Z" fill="#1B262C"/>
</svg>
