<svg width="51" height="48" viewBox="0 0 51 48" fill="none" xmlns="http://www.w3.org/2000/svg">
<path d="M25.2785 0.041626C11.3121 0.041626 0 11.0416 0 24.6083C0 35.4645 7.24229 44.6708 17.2842 47.9166C18.5481 48.1479 19.0115 47.3875 19.0115 46.7354C19.0115 46.152 18.9905 44.6062 18.9799 42.5583C11.9483 44.0395 10.4653 39.2625 10.4653 39.2625C9.31512 36.427 7.65306 35.6687 7.65306 35.6687C5.36325 34.1458 7.83001 34.177 7.83001 34.177C10.3684 34.3479 11.7018 36.7083 11.7018 36.7083C13.9558 40.4645 17.6191 39.3791 19.0642 38.752C19.2917 37.1625 19.9426 36.0812 20.6652 35.4666C15.0512 34.852 9.15081 32.7395 9.15081 23.327C9.15081 20.6458 10.1304 18.4541 11.7524 16.7354C11.468 16.1145 10.6149 13.6166 11.9736 10.2333C11.9736 10.2333 14.0907 9.57496 18.9252 12.752C20.9474 12.2062 23.0961 11.9354 25.2448 11.9229C27.3935 11.9354 29.5421 12.2062 31.5644 12.752C36.3673 9.57496 38.4844 10.2333 38.4844 10.2333C39.8431 13.6166 38.99 16.1145 38.7372 16.7354C40.3487 18.4541 41.3282 20.6458 41.3282 23.327C41.3282 32.7645 35.4194 34.8416 29.7949 35.4458C30.6797 36.1833 31.5012 37.6895 31.5012 39.9916C31.5012 43.2791 31.4696 45.9208 31.4696 46.7187C31.4696 47.3625 31.912 48.1312 33.2075 47.8854C43.321 44.6604 50.557 35.4479 50.557 24.6083C50.557 11.0416 39.2385 0.041626 25.2785 0.041626Z" fill="#050505"/>
</svg>
