<svg width="120" height="120" viewBox="0 0 120 120" fill="none" xmlns="http://www.w3.org/2000/svg">
<path d="M110 0H10C4.5 0 0 4.5 0 10V110C0 115.5 4.5 120 10 120H110C115.5 120 120 115.5 120 110V10C120 4.5 115.5 0 110 0Z" fill="white"/>
<path d="M72.9599 96H63.3599H53.7599C53.7599 96 53.7599 90.24 53.7599 86.4C40.5599 89.28 36.9599 79.2 36.9599 79.2C34.5599 74.4 32.1599 72 32.1599 72C27.3599 69.12 32.1599 69.6 32.1599 69.6C36.9599 69.6 39.3599 74.4 39.3599 74.4C43.6799 81.6 51.1199 80.4 53.7599 79.2C53.7599 76.8 54.7199 73.2 56.1599 72C45.5999 70.8 36.9599 64.8 36.9599 52.8C36.9599 40.8 39.3599 38.4 41.7599 36C41.2799 34.8 39.3599 30.48 41.7599 24C41.7599 24 46.5599 24 51.3599 31.2C53.7599 28.8 60.9599 28.8 63.3599 28.8C65.7599 28.8 72.9599 28.8 75.3599 31.2C80.1599 24 84.9599 24 84.9599 24C87.5999 30.48 85.4399 34.8 84.9599 36C87.3599 38.4 89.7599 40.8 89.7599 52.8C89.7599 64.8 81.1199 70.8 70.5599 72C71.9999 73.2 72.9599 77.28 72.9599 79.2V96Z" fill="#1B262C"/>
</svg>
