<svg width="346" height="484" viewBox="0 0 346 484" fill="none" xmlns="http://www.w3.org/2000/svg">
<path d="M22.2583 184.252H169.507C170.309 184.251 171.103 184.416 171.844 184.737C172.585 185.058 173.258 185.528 173.825 186.121C174.392 186.714 174.842 187.418 175.149 188.193C175.455 188.968 175.613 189.798 175.613 190.637V192.328C175.613 194.021 174.969 195.645 173.824 196.843C172.679 198.04 171.126 198.713 169.507 198.713H22.5574" fill="white"/>
<path d="M22.2583 184.252H169.507C170.309 184.251 171.103 184.416 171.844 184.737C172.585 185.058 173.258 185.528 173.825 186.121C174.392 186.714 174.842 187.418 175.149 188.193C175.455 188.968 175.613 189.798 175.613 190.637V192.328C175.613 194.021 174.969 195.645 173.824 196.843C172.679 198.04 171.126 198.713 169.507 198.713H22.5574" stroke="#3F4D79" stroke-width="6" stroke-miterlimit="10" stroke-linecap="round"/>
<path d="M134.422 269.643V198.95H147.717V269.32" fill="white"/>
<path d="M134.422 264.248V198.95H147.717V268.636" stroke="#3F4D79" stroke-width="6" stroke-miterlimit="10" stroke-linecap="round"/>
<path d="M148.257 177.899V181.813L94.2003 168.068L40.1436 181.813V177.899L88.5413 161.488V113.044H100.564V161.729L148.257 177.899Z" fill="white" stroke="#D8BAA3" stroke-width="6" stroke-miterlimit="10"/>
<path d="M178.395 145.955H24.4108C22.5955 145.955 21.1068 144.344 20.9727 142.293C20.96 142.08 20.9371 141.868 20.904 141.657L3.08101 40.599C2.914 39.7514 3.00664 38.8703 3.34574 38.081C3.60793 37.4519 4.03663 36.9145 4.58124 36.532C5.12585 36.1496 5.76365 35.9381 6.41938 35.9226H160.404C162.219 35.9226 163.708 37.5378 163.842 39.5882C163.854 39.8003 163.877 40.0117 163.91 40.2213L181.727 141.283C181.893 142.13 181.801 143.011 181.462 143.801C181.2 144.428 180.772 144.964 180.229 145.346C179.685 145.727 179.049 145.939 178.395 145.955Z" fill="white" stroke="#D8BAA3" stroke-width="6" stroke-miterlimit="10"/>
<path d="M174.115 141.099H27.2195C25.4661 141.099 24.0462 139.466 24.0462 137.444L7.54346 43.8294C7.54346 41.8113 8.96338 40.1746 10.7168 40.1746H157.608C159.358 40.1746 160.782 41.8113 160.782 43.8294L177.284 137.444C177.284 139.466 175.865 141.099 174.115 141.099Z" fill="#3E4D70" stroke="#3E4D70" stroke-width="6" stroke-miterlimit="10"/>
<path d="M25 67H40L44.5 88.5H30L25 67Z" stroke="white"/>
<path d="M51.5 74H85.5" stroke="white"/>
<path d="M48 69H82M32 130L14 51H88L106 130H32Z" stroke="white"/>
<path d="M53 79H90" stroke="white"/>
<path d="M55 84.5L93.5 84" stroke="#CCCCCC"/>
<path d="M218.229 454.265L222.812 421.336C207.55 423.135 200.691 421.336 200.691 421.336L205.91 446.351C205.797 450.409 197.659 466.676 193.354 468.05C189.05 469.424 208.754 473.6 218.229 454.265Z" fill="#FFCFC9"/>
<path d="M182.046 481H219.477C219.477 481 225.865 468.41 224.868 460.028C223.592 449.236 217.902 447.974 217.902 447.974C212.652 447.974 214.003 461.672 203.985 466.446C198.993 468.823 194.723 467.33 190.404 468.708C180.754 471.787 182.046 481 182.046 481Z" fill="#2B3855"/>
<path d="M160.95 302.083C164.275 308.458 185.567 353.233 200.694 421.336C200.694 421.336 207.787 423.678 222.815 421.336C222.815 421.336 236.502 338.916 221.416 312.58L160.95 302.083Z" fill="#2B3855"/>
<path d="M279.77 217.947C279.77 217.947 301.247 274.23 289.764 295.691C270.628 331.43 160.95 302.083 160.95 302.083C160.95 302.083 184.896 332.865 157.044 420.793C157.044 420.793 156.04 424.368 134.521 421.512C134.521 421.512 108.145 294.709 108.141 267.687C108.141 245.563 145.96 238.678 207.8 243.326C207.8 243.326 215.969 235.649 222.123 219.584C222.123 219.562 240.139 225.455 279.77 217.947Z" fill="#2B3855"/>
<path d="M152.561 454.265L157.144 421.336C141.883 423.135 134.68 421.336 134.68 421.336L140.243 446.351C140.129 450.409 131.991 466.676 127.687 468.05C123.382 469.424 143.086 473.6 152.561 454.265Z" fill="#FFCFC9"/>
<path d="M116.38 481H153.81C153.81 481 160.198 468.41 159.201 460.028C157.926 449.236 152.236 447.974 152.236 447.974C146.986 447.974 148.337 461.672 138.318 466.446C133.326 468.823 129.056 467.33 124.738 468.708C115.087 471.787 116.38 481 116.38 481Z" fill="#2B3855"/>
<path d="M295.282 139.678C289.252 165.456 280.842 210.494 280.605 216.602C280.368 222.71 239.469 226.613 221.264 220.998C221.264 220.998 216.234 190.73 214.976 174.334C205.435 188.363 195.702 199.263 189.087 199.263C164.814 199.263 124.775 185.022 121.739 181.604L123.503 171.999C133.538 172.244 182.785 166.042 182.785 166.042C182.785 166.042 202.355 113.947 215.151 103.188L215.206 103.137C223.609 95.0218 245.423 92.421 250.312 91.162C255.37 89.8598 281.162 86.1978 281.162 86.1978C289.912 92.1116 300.649 116.72 295.282 139.678Z" fill="#F3E7DD"/>
<path d="M221.357 100.173C221.356 100.776 221.179 101.364 220.85 101.859C220.521 102.353 220.055 102.731 219.515 102.94C218.974 103.15 218.386 103.182 217.828 103.032C217.27 102.882 216.769 102.557 216.393 102.101C217.88 100.935 219.479 99.9347 221.165 99.1156C221.292 99.4523 221.357 99.8111 221.357 100.173Z" fill="white"/>
<path d="M230.2 103.13C231.759 103.13 233.022 101.808 233.022 100.177C233.022 98.5457 231.759 97.2234 230.2 97.2234C228.641 97.2234 227.377 98.5457 227.377 100.177C227.377 101.808 228.641 103.13 230.2 103.13Z" fill="white"/>
<path d="M241.869 103.13C243.427 103.13 244.691 101.808 244.691 100.177C244.691 98.5457 243.427 97.2234 241.869 97.2234C240.31 97.2234 239.046 98.5457 239.046 100.177C239.046 101.808 240.31 103.13 241.869 103.13Z" fill="white"/>
<path d="M253.534 103.13C255.093 103.13 256.356 101.808 256.356 100.177C256.356 98.5457 255.093 97.2234 253.534 97.2234C251.975 97.2234 250.711 98.5457 250.711 100.177C250.711 101.808 251.975 103.13 253.534 103.13Z" fill="white"/>
<path d="M265.203 103.13C266.761 103.13 268.025 101.808 268.025 100.177C268.025 98.5457 266.761 97.2234 265.203 97.2234C263.644 97.2234 262.38 98.5457 262.38 100.177C262.38 101.808 263.644 103.13 265.203 103.13Z" fill="white"/>
<path d="M276.868 103.13C278.426 103.13 279.69 101.808 279.69 100.177C279.69 98.5457 278.426 97.2234 276.868 97.2234C275.309 97.2234 274.045 98.5457 274.045 100.177C274.045 101.808 275.309 103.13 276.868 103.13Z" fill="white"/>
<path d="M291.321 100.648C291.234 101.204 290.997 101.723 290.637 102.142C290.277 102.562 289.81 102.865 289.291 103.015C288.771 103.166 288.222 103.158 287.707 102.993C287.192 102.827 286.733 102.511 286.384 102.081C286.036 101.651 285.812 101.126 285.739 100.568C285.667 100.009 285.748 99.4405 285.974 98.9289C286.201 98.4174 286.562 97.9843 287.016 97.6808C287.47 97.3773 287.998 97.2161 288.537 97.2162C289.017 97.2083 289.491 97.3323 289.912 97.5759C290.39 98.5867 290.864 99.5832 291.321 100.648Z" fill="white"/>
<path d="M215.522 108.443C215.528 109.167 215.28 109.868 214.824 110.413C214.368 110.958 213.736 111.308 213.049 111.397C212.362 111.486 211.668 111.307 211.099 110.895C210.53 110.483 210.126 109.866 209.963 109.163C210.856 107.893 211.812 106.673 212.827 105.508C213.55 105.541 214.234 105.865 214.736 106.411C215.238 106.958 215.519 107.685 215.522 108.443Z" fill="white"/>
<path d="M224.365 111.4C225.924 111.4 227.188 110.078 227.188 108.447C227.188 106.816 225.924 105.494 224.365 105.494C222.806 105.494 221.542 106.816 221.542 108.447C221.542 110.078 222.806 111.4 224.365 111.4Z" fill="white"/>
<path d="M236.034 111.4C237.593 111.4 238.857 110.078 238.857 108.447C238.857 106.816 237.593 105.494 236.034 105.494C234.475 105.494 233.211 106.816 233.211 108.447C233.211 110.078 234.475 111.4 236.034 111.4Z" fill="white"/>
<path d="M247.7 111.4C249.259 111.4 250.522 110.078 250.522 108.447C250.522 106.816 249.259 105.494 247.7 105.494C246.141 105.494 244.877 106.816 244.877 108.447C244.877 110.078 246.141 111.4 247.7 111.4Z" fill="white"/>
<path d="M259.369 111.4C260.927 111.4 262.191 110.078 262.191 108.447C262.191 106.816 260.927 105.494 259.369 105.494C257.81 105.494 256.546 106.816 256.546 108.447C256.546 110.078 257.81 111.4 259.369 111.4Z" fill="white"/>
<path d="M271.034 111.4C272.593 111.4 273.857 110.078 273.857 108.447C273.857 106.816 272.593 105.494 271.034 105.494C269.475 105.494 268.211 106.816 268.211 108.447C268.211 110.078 269.475 111.4 271.034 111.4Z" fill="white"/>
<path d="M282.702 111.4C284.261 111.4 285.525 110.078 285.525 108.447C285.525 106.816 284.261 105.494 282.702 105.494C281.143 105.494 279.879 106.816 279.879 108.447C279.879 110.078 281.143 111.4 282.702 111.4Z" fill="white"/>
<path d="M294.852 111.35C294.694 111.382 294.532 111.398 294.371 111.397C293.722 111.396 293.094 111.161 292.591 110.732C292.089 110.303 291.742 109.707 291.611 109.042C291.479 108.378 291.571 107.686 291.869 107.084C292.168 106.481 292.655 106.005 293.25 105.734C293.866 107.533 294.388 109.411 294.852 111.35Z" fill="white"/>
<path d="M250.526 91.511C250.525 92.2308 250.273 92.9255 249.817 93.4646C249.361 94.0036 248.732 94.3498 248.049 94.4382C247.367 94.5266 246.677 94.351 246.109 93.9444C245.541 93.5379 245.135 92.9284 244.966 92.2304C247.352 91.7808 249.24 91.439 250.313 91.1513L250.495 91.1045C250.518 91.2386 250.528 91.3748 250.526 91.511Z" fill="white"/>
<path d="M262.191 91.511C262.195 91.9742 262.095 92.432 261.899 92.8473C261.702 93.2625 261.415 93.6236 261.061 93.9014C260.707 94.1792 260.295 94.3659 259.859 94.4463C259.423 94.5268 258.975 94.4988 258.551 94.3646C258.127 94.2303 257.739 93.9937 257.419 93.6737C257.099 93.3538 256.855 92.9595 256.707 92.5227C256.56 92.086 256.512 91.619 256.569 91.1595C256.626 90.7001 256.785 90.261 257.034 89.8778C258.32 89.6584 259.709 89.4354 261.16 89.2015C261.486 89.4813 261.748 89.834 261.926 90.2337C262.105 90.6333 262.195 91.0698 262.191 91.511Z" fill="white"/>
<path d="M271.034 94.4643C272.593 94.4643 273.856 93.1421 273.856 91.511C273.856 89.8799 272.593 88.5576 271.034 88.5576C269.475 88.5576 268.211 89.8799 268.211 91.511C268.211 93.1421 269.475 94.4643 271.034 94.4643Z" fill="white"/>
<path d="M282.702 94.4643C284.261 94.4643 285.525 93.1421 285.525 91.511C285.525 89.8799 284.261 88.5576 282.702 88.5576C281.143 88.5576 279.88 89.8799 279.88 91.511C279.88 93.1421 281.143 94.4643 282.702 94.4643Z" fill="white"/>
<path d="M218.531 120.454C220.09 120.454 221.353 119.132 221.353 117.501C221.353 115.87 220.09 114.548 218.531 114.548C216.972 114.548 215.708 115.87 215.708 117.501C215.708 119.132 216.972 120.454 218.531 120.454Z" fill="white"/>
<path d="M209.688 117.501C209.695 118.206 209.461 118.891 209.028 119.431C208.594 119.971 207.99 120.331 207.324 120.445C206.659 120.559 205.977 120.42 205.401 120.053C204.826 119.685 204.395 119.115 204.187 118.444C204.934 117.105 205.678 115.82 206.418 114.587C206.563 114.56 206.711 114.546 206.858 114.548C207.23 114.547 207.597 114.623 207.94 114.771C208.283 114.92 208.595 115.137 208.858 115.411C209.121 115.685 209.329 116.011 209.471 116.37C209.614 116.728 209.687 117.113 209.688 117.501Z" fill="white"/>
<path d="M230.2 120.454C231.759 120.454 233.022 119.132 233.022 117.501C233.022 115.87 231.759 114.548 230.2 114.548C228.641 114.548 227.377 115.87 227.377 117.501C227.377 119.132 228.641 120.454 230.2 120.454Z" fill="white"/>
<path d="M241.869 120.454C243.427 120.454 244.691 119.132 244.691 117.501C244.691 115.87 243.427 114.548 241.869 114.548C240.31 114.548 239.046 115.87 239.046 117.501C239.046 119.132 240.31 120.454 241.869 120.454Z" fill="white"/>
<path d="M253.534 120.454C255.093 120.454 256.356 119.132 256.356 117.501C256.356 115.87 255.093 114.548 253.534 114.548C251.975 114.548 250.711 115.87 250.711 117.501C250.711 119.132 251.975 120.454 253.534 120.454Z" fill="white"/>
<path d="M265.203 120.454C266.761 120.454 268.025 119.132 268.025 117.501C268.025 115.87 266.761 114.548 265.203 114.548C263.644 114.548 262.38 115.87 262.38 117.501C262.38 119.132 263.644 120.454 265.203 120.454Z" fill="white"/>
<path d="M276.868 120.454C278.426 120.454 279.69 119.132 279.69 117.501C279.69 115.87 278.426 114.548 276.868 114.548C275.309 114.548 274.045 115.87 274.045 117.501C274.045 119.132 275.309 120.454 276.868 120.454Z" fill="white"/>
<path d="M288.537 120.454C290.095 120.454 291.359 119.132 291.359 117.501C291.359 115.87 290.095 114.548 288.537 114.548C286.978 114.548 285.714 115.87 285.714 117.501C285.714 119.132 286.978 120.454 288.537 120.454Z" fill="white"/>
<path d="M212.7 128.725C214.259 128.725 215.523 127.402 215.523 125.771C215.523 124.14 214.259 122.818 212.7 122.818C211.141 122.818 209.877 124.14 209.877 125.771C209.877 127.402 211.141 128.725 212.7 128.725Z" fill="white"/>
<path d="M203.853 125.771C203.854 126.337 203.698 126.89 203.407 127.366C203.115 127.842 202.698 128.221 202.207 128.456C201.716 128.692 201.17 128.775 200.635 128.696C200.1 128.616 199.597 128.378 199.188 128.009C200.037 126.282 200.907 124.58 201.77 122.922C202.368 123.091 202.897 123.462 203.273 123.977C203.65 124.492 203.854 125.123 203.853 125.771Z" fill="white"/>
<path d="M224.365 128.725C225.924 128.725 227.188 127.402 227.188 125.771C227.188 124.14 225.924 122.818 224.365 122.818C222.806 122.818 221.542 124.14 221.542 125.771C221.542 127.402 222.806 128.725 224.365 128.725Z" fill="white"/>
<path d="M236.034 128.725C237.593 128.725 238.857 127.402 238.857 125.771C238.857 124.14 237.593 122.818 236.034 122.818C234.475 122.818 233.211 124.14 233.211 125.771C233.211 127.402 234.475 128.725 236.034 128.725Z" fill="white"/>
<path d="M247.7 128.725C249.259 128.725 250.522 127.402 250.522 125.771C250.522 124.14 249.259 122.818 247.7 122.818C246.141 122.818 244.877 124.14 244.877 125.771C244.877 127.402 246.141 128.725 247.7 128.725Z" fill="white"/>
<path d="M259.369 128.725C260.927 128.725 262.191 127.402 262.191 125.771C262.191 124.14 260.927 122.818 259.369 122.818C257.81 122.818 256.546 124.14 256.546 125.771C256.546 127.402 257.81 128.725 259.369 128.725Z" fill="white"/>
<path d="M271.034 128.725C272.593 128.725 273.857 127.402 273.857 125.771C273.857 124.14 272.593 122.818 271.034 122.818C269.475 122.818 268.211 124.14 268.211 125.771C268.211 127.402 269.475 128.725 271.034 128.725Z" fill="white"/>
<path d="M282.702 128.725C284.261 128.725 285.525 127.402 285.525 125.771C285.525 124.14 284.261 122.818 282.702 122.818C281.143 122.818 279.879 124.14 279.879 125.771C279.879 127.402 281.143 128.725 282.702 128.725Z" fill="white"/>
<path d="M296.719 127.408C296.385 127.931 295.901 128.329 295.336 128.544C294.77 128.759 294.154 128.78 293.577 128.603C293 128.426 292.492 128.06 292.128 127.56C291.763 127.06 291.56 126.451 291.549 125.822C291.538 125.193 291.72 124.577 292.067 124.063C292.414 123.55 292.909 123.165 293.48 122.967C294.05 122.768 294.666 122.765 295.239 122.958C295.811 123.151 296.309 123.531 296.661 124.041C296.709 125.161 296.728 126.283 296.719 127.408Z" fill="white"/>
<path d="M218.531 137.39C220.09 137.39 221.353 136.068 221.353 134.437C221.353 132.806 220.09 131.484 218.531 131.484C216.972 131.484 215.708 132.806 215.708 134.437C215.708 136.068 216.972 137.39 218.531 137.39Z" fill="white"/>
<path d="M230.2 137.39C231.759 137.39 233.022 136.068 233.022 134.437C233.022 132.806 231.759 131.484 230.2 131.484C228.641 131.484 227.377 132.806 227.377 134.437C227.377 136.068 228.641 137.39 230.2 137.39Z" fill="white"/>
<path d="M241.869 137.39C243.427 137.39 244.691 136.068 244.691 134.437C244.691 132.806 243.427 131.484 241.869 131.484C240.31 131.484 239.046 132.806 239.046 134.437C239.046 136.068 240.31 137.39 241.869 137.39Z" fill="white"/>
<path d="M253.534 137.39C255.093 137.39 256.356 136.068 256.356 134.437C256.356 132.806 255.093 131.484 253.534 131.484C251.975 131.484 250.711 132.806 250.711 134.437C250.711 136.068 251.975 137.39 253.534 137.39Z" fill="white"/>
<path d="M265.203 137.39C266.761 137.39 268.025 136.068 268.025 134.437C268.025 132.806 266.761 131.484 265.203 131.484C263.644 131.484 262.38 132.806 262.38 134.437C262.38 136.068 263.644 137.39 265.203 137.39Z" fill="white"/>
<path d="M276.868 137.39C278.426 137.39 279.69 136.068 279.69 134.437C279.69 132.806 278.426 131.484 276.868 131.484C275.309 131.484 274.045 132.806 274.045 134.437C274.045 136.068 275.309 137.39 276.868 137.39Z" fill="white"/>
<path d="M288.537 137.39C290.095 137.39 291.359 136.068 291.359 134.437C291.359 132.806 290.095 131.484 288.537 131.484C286.978 131.484 285.714 132.806 285.714 134.437C285.714 136.068 286.978 137.39 288.537 137.39Z" fill="white"/>
<path d="M212.7 145.657C214.259 145.657 215.523 144.335 215.523 142.703C215.523 141.072 214.259 139.75 212.7 139.75C211.141 139.75 209.877 141.072 209.877 142.703C209.877 144.335 211.141 145.657 212.7 145.657Z" fill="white"/>
<path d="M224.365 145.657C225.924 145.657 227.188 144.335 227.188 142.703C227.188 141.072 225.924 139.75 224.365 139.75C222.806 139.75 221.542 141.072 221.542 142.703C221.542 144.335 222.806 145.657 224.365 145.657Z" fill="white"/>
<path d="M236.034 145.657C237.593 145.657 238.857 144.335 238.857 142.703C238.857 141.072 237.593 139.75 236.034 139.75C234.475 139.75 233.211 141.072 233.211 142.703C233.211 144.335 234.475 145.657 236.034 145.657Z" fill="white"/>
<path d="M247.7 145.657C249.259 145.657 250.522 144.335 250.522 142.703C250.522 141.072 249.259 139.75 247.7 139.75C246.141 139.75 244.877 141.072 244.877 142.703C244.877 144.335 246.141 145.657 247.7 145.657Z" fill="white"/>
<path d="M259.369 145.657C260.927 145.657 262.191 144.335 262.191 142.703C262.191 141.072 260.927 139.75 259.369 139.75C257.81 139.75 256.546 141.072 256.546 142.703C256.546 144.335 257.81 145.657 259.369 145.657Z" fill="white"/>
<path d="M271.034 145.657C272.593 145.657 273.857 144.335 273.857 142.703C273.857 141.072 272.593 139.75 271.034 139.75C269.475 139.75 268.211 141.072 268.211 142.703C268.211 144.335 269.475 145.657 271.034 145.657Z" fill="white"/>
<path d="M282.702 145.657C284.261 145.657 285.525 144.335 285.525 142.703C285.525 141.072 284.261 139.75 282.702 139.75C281.143 139.75 279.879 141.072 279.879 142.703C279.879 144.335 281.143 145.657 282.702 145.657Z" fill="white"/>
<path d="M295.241 139.89C294.815 141.711 294.378 143.624 293.931 145.617C293.233 145.497 292.604 145.106 292.168 144.523C291.732 143.94 291.522 143.207 291.578 142.469C291.634 141.731 291.953 141.042 292.472 140.538C292.99 140.035 293.671 139.754 294.378 139.75C294.671 139.75 294.962 139.798 295.241 139.89Z" fill="white"/>
<path d="M218.531 154.715C220.09 154.715 221.353 153.392 221.353 151.761C221.353 150.13 220.09 148.808 218.531 148.808C216.972 148.808 215.708 150.13 215.708 151.761C215.708 153.392 216.972 154.715 218.531 154.715Z" fill="white"/>
<path d="M206.866 154.715C208.425 154.715 209.688 153.392 209.688 151.761C209.688 150.13 208.425 148.808 206.866 148.808C205.307 148.808 204.043 150.13 204.043 151.761C204.043 153.392 205.307 154.715 206.866 154.715Z" fill="white"/>
<path d="M230.2 154.715C231.759 154.715 233.022 153.392 233.022 151.761C233.022 150.13 231.759 148.808 230.2 148.808C228.641 148.808 227.377 150.13 227.377 151.761C227.377 153.392 228.641 154.715 230.2 154.715Z" fill="white"/>
<path d="M241.869 154.715C243.427 154.715 244.691 153.392 244.691 151.761C244.691 150.13 243.427 148.808 241.869 148.808C240.31 148.808 239.046 150.13 239.046 151.761C239.046 153.392 240.31 154.715 241.869 154.715Z" fill="white"/>
<path d="M253.534 154.715C255.093 154.715 256.356 153.392 256.356 151.761C256.356 150.13 255.093 148.808 253.534 148.808C251.975 148.808 250.711 150.13 250.711 151.761C250.711 153.392 251.975 154.715 253.534 154.715Z" fill="white"/>
<path d="M265.203 154.715C266.761 154.715 268.025 153.392 268.025 151.761C268.025 150.13 266.761 148.808 265.203 148.808C263.644 148.808 262.38 150.13 262.38 151.761C262.38 153.392 263.644 154.715 265.203 154.715Z" fill="white"/>
<path d="M276.868 154.715C278.426 154.715 279.69 153.392 279.69 151.761C279.69 150.13 278.426 148.808 276.868 148.808C275.309 148.808 274.045 150.13 274.045 151.761C274.045 153.392 275.309 154.715 276.868 154.715Z" fill="white"/>
<path d="M288.537 154.715C290.095 154.715 291.359 153.392 291.359 151.761C291.359 150.13 290.095 148.808 288.537 148.808C286.978 148.808 285.714 150.13 285.714 151.761C285.714 153.392 286.978 154.715 288.537 154.715Z" fill="white"/>
<path d="M212.7 162.985C214.259 162.985 215.523 161.663 215.523 160.031C215.523 158.4 214.259 157.078 212.7 157.078C211.141 157.078 209.877 158.4 209.877 160.031C209.877 161.663 211.141 162.985 212.7 162.985Z" fill="white"/>
<path d="M206.866 137.39C208.425 137.39 209.688 136.068 209.688 134.437C209.688 132.806 208.425 131.484 206.866 131.484C205.307 131.484 204.043 132.806 204.043 134.437C204.043 136.068 205.307 137.39 206.866 137.39Z" fill="white"/>
<path d="M201.031 145.657C202.59 145.657 203.853 144.335 203.853 142.703C203.853 141.072 202.59 139.75 201.031 139.75C199.472 139.75 198.208 141.072 198.208 142.703C198.208 144.335 199.472 145.657 201.031 145.657Z" fill="white"/>
<path d="M195.197 154.715C196.756 154.715 198.019 153.392 198.019 151.761C198.019 150.13 196.756 148.808 195.197 148.808C193.638 148.808 192.374 150.13 192.374 151.761C192.374 153.392 193.638 154.715 195.197 154.715Z" fill="white"/>
<path d="M201.031 162.985C202.59 162.985 203.853 161.663 203.853 160.031C203.853 158.4 202.59 157.078 201.031 157.078C199.472 157.078 198.208 158.4 198.208 160.031C198.208 161.663 199.472 162.985 201.031 162.985Z" fill="white"/>
<path d="M198.022 134.433C198.022 135.217 197.725 135.968 197.195 136.522C196.666 137.076 195.948 137.387 195.199 137.387C195.052 137.388 194.904 137.375 194.759 137.347C195.526 135.667 196.317 133.969 197.118 132.275C197.403 132.549 197.631 132.883 197.787 133.255C197.943 133.626 198.023 134.028 198.022 134.433Z" fill="white"/>
<path d="M189.366 162.985C190.925 162.985 192.189 161.663 192.189 160.031C192.189 158.4 190.925 157.078 189.366 157.078C187.807 157.078 186.543 158.4 186.543 160.031C186.543 161.663 187.807 162.985 189.366 162.985Z" fill="white"/>
<path d="M224.365 162.985C225.924 162.985 227.188 161.663 227.188 160.031C227.188 158.4 225.924 157.078 224.365 157.078C222.806 157.078 221.542 158.4 221.542 160.031C221.542 161.663 222.806 162.985 224.365 162.985Z" fill="white"/>
<path d="M236.034 162.985C237.593 162.985 238.857 161.663 238.857 160.031C238.857 158.4 237.593 157.078 236.034 157.078C234.475 157.078 233.211 158.4 233.211 160.031C233.211 161.663 234.475 162.985 236.034 162.985Z" fill="white"/>
<path d="M247.7 162.985C249.259 162.985 250.522 161.663 250.522 160.031C250.522 158.4 249.259 157.078 247.7 157.078C246.141 157.078 244.877 158.4 244.877 160.031C244.877 161.663 246.141 162.985 247.7 162.985Z" fill="white"/>
<path d="M259.369 162.985C260.927 162.985 262.191 161.663 262.191 160.031C262.191 158.4 260.927 157.078 259.369 157.078C257.81 157.078 256.546 158.4 256.546 160.031C256.546 161.663 257.81 162.985 259.369 162.985Z" fill="white"/>
<path d="M271.034 162.985C272.593 162.985 273.857 161.663 273.857 160.031C273.857 158.4 272.593 157.078 271.034 157.078C269.475 157.078 268.211 158.4 268.211 160.031C268.211 161.663 269.475 162.985 271.034 162.985Z" fill="white"/>
<path d="M282.702 162.985C284.261 162.985 285.525 161.663 285.525 160.031C285.525 158.4 284.261 157.078 282.702 157.078C281.143 157.078 279.879 158.4 279.879 160.031C279.879 161.663 281.143 162.985 282.702 162.985Z" fill="white"/>
<path d="M218.531 171.647C220.09 171.647 221.353 170.325 221.353 168.694C221.353 167.063 220.09 165.74 218.531 165.74C216.972 165.74 215.708 167.063 215.708 168.694C215.708 170.325 216.972 171.647 218.531 171.647Z" fill="white"/>
<path d="M230.2 171.647C231.759 171.647 233.022 170.325 233.022 168.694C233.022 167.063 231.759 165.74 230.2 165.74C228.641 165.74 227.377 167.063 227.377 168.694C227.377 170.325 228.641 171.647 230.2 171.647Z" fill="white"/>
<path d="M241.869 171.647C243.427 171.647 244.691 170.325 244.691 168.694C244.691 167.063 243.427 165.74 241.869 165.74C240.31 165.74 239.046 167.063 239.046 168.694C239.046 170.325 240.31 171.647 241.869 171.647Z" fill="white"/>
<path d="M253.534 171.647C255.093 171.647 256.356 170.325 256.356 168.694C256.356 167.063 255.093 165.74 253.534 165.74C251.975 165.74 250.711 167.063 250.711 168.694C250.711 170.325 251.975 171.647 253.534 171.647Z" fill="white"/>
<path d="M265.203 171.647C266.761 171.647 268.025 170.325 268.025 168.694C268.025 167.063 266.761 165.74 265.203 165.74C263.644 165.74 262.38 167.063 262.38 168.694C262.38 170.325 263.644 171.647 265.203 171.647Z" fill="white"/>
<path d="M276.868 171.647C278.426 171.647 279.69 170.325 279.69 168.694C279.69 167.063 278.426 165.74 276.868 165.74C275.309 165.74 274.045 167.063 274.045 168.694C274.045 170.325 275.309 171.647 276.868 171.647Z" fill="white"/>
<path d="M289.606 165.96C289.223 167.852 288.842 169.746 288.464 171.643C288.05 171.633 287.643 171.527 287.273 171.334C286.902 171.141 286.576 170.864 286.319 170.525C286.062 170.185 285.879 169.79 285.784 169.368C285.689 168.946 285.684 168.508 285.769 168.084C285.854 167.659 286.028 167.26 286.277 166.914C286.526 166.568 286.845 166.283 287.212 166.08C287.578 165.878 287.982 165.762 288.396 165.741C288.81 165.72 289.223 165.795 289.606 165.96Z" fill="white"/>
<path d="M212.7 174.01C213.422 174.008 214.116 174.298 214.639 174.82C213.532 176.438 212.425 178.01 211.317 179.536C210.773 179.216 210.346 178.717 210.101 178.117C209.857 177.516 209.81 176.848 209.967 176.216C210.124 175.585 210.477 175.025 210.97 174.625C211.463 174.226 212.069 174.008 212.693 174.007L212.7 174.01Z" fill="white"/>
<path d="M224.365 179.917C225.924 179.917 227.188 178.595 227.188 176.964C227.188 175.333 225.924 174.01 224.365 174.01C222.806 174.01 221.542 175.333 221.542 176.964C221.542 178.595 222.806 179.917 224.365 179.917Z" fill="white"/>
<path d="M236.034 179.917C237.593 179.917 238.857 178.595 238.857 176.964C238.857 175.333 237.593 174.01 236.034 174.01C234.475 174.01 233.211 175.333 233.211 176.964C233.211 178.595 234.475 179.917 236.034 179.917Z" fill="white"/>
<path d="M247.7 179.917C249.259 179.917 250.522 178.595 250.522 176.964C250.522 175.333 249.259 174.01 247.7 174.01C246.141 174.01 244.877 175.333 244.877 176.964C244.877 178.595 246.141 179.917 247.7 179.917Z" fill="white"/>
<path d="M259.369 179.917C260.927 179.917 262.191 178.595 262.191 176.964C262.191 175.333 260.927 174.01 259.369 174.01C257.81 174.01 256.546 175.333 256.546 176.964C256.546 178.595 257.81 179.917 259.369 179.917Z" fill="white"/>
<path d="M271.034 179.917C272.593 179.917 273.857 178.595 273.857 176.964C273.857 175.333 272.593 174.01 271.034 174.01C269.475 174.01 268.211 175.333 268.211 176.964C268.211 178.595 269.475 179.917 271.034 179.917Z" fill="white"/>
<path d="M282.702 179.917C284.261 179.917 285.525 178.595 285.525 176.964C285.525 175.333 284.261 174.01 282.702 174.01C281.143 174.01 279.879 175.333 279.879 176.964C279.879 178.595 281.143 179.917 282.702 179.917Z" fill="white"/>
<path d="M219.283 188.975C220.842 188.975 222.106 187.653 222.106 186.022C222.106 184.39 220.842 183.068 219.283 183.068C217.724 183.068 216.46 184.39 216.46 186.022C216.46 187.653 217.724 188.975 219.283 188.975Z" fill="white"/>
<path d="M208.34 183.507C207.123 185.076 205.913 186.561 204.724 187.946C204.371 187.516 204.143 186.989 204.069 186.428C203.994 185.867 204.076 185.295 204.303 184.78C204.531 184.266 204.895 183.831 205.353 183.528C205.81 183.224 206.341 183.065 206.883 183.068C207.398 183.069 207.904 183.221 208.34 183.507Z" fill="white"/>
<path d="M230.2 188.975C231.759 188.975 233.022 187.653 233.022 186.022C233.022 184.39 231.759 183.068 230.2 183.068C228.641 183.068 227.377 184.39 227.377 186.022C227.377 187.653 228.641 188.975 230.2 188.975Z" fill="white"/>
<path d="M241.869 188.975C243.427 188.975 244.691 187.653 244.691 186.022C244.691 184.39 243.427 183.068 241.869 183.068C240.31 183.068 239.046 184.39 239.046 186.022C239.046 187.653 240.31 188.975 241.869 188.975Z" fill="white"/>
<path d="M253.534 188.975C255.093 188.975 256.356 187.653 256.356 186.022C256.356 184.39 255.093 183.068 253.534 183.068C251.975 183.068 250.711 184.39 250.711 186.022C250.711 187.653 251.975 188.975 253.534 188.975Z" fill="white"/>
<path d="M265.203 188.975C266.761 188.975 268.025 187.653 268.025 186.022C268.025 184.39 266.761 183.068 265.203 183.068C263.644 183.068 262.38 184.39 262.38 186.022C262.38 187.653 263.644 188.975 265.203 188.975Z" fill="white"/>
<path d="M276.868 188.975C278.426 188.975 279.69 187.653 279.69 186.022C279.69 184.39 278.426 183.068 276.868 183.068C275.309 183.068 274.045 184.39 274.045 186.022C274.045 187.653 275.309 188.975 276.868 188.975Z" fill="white"/>
<path d="M206.866 171.647C208.425 171.647 209.688 170.325 209.688 168.694C209.688 167.063 208.425 165.74 206.866 165.74C205.307 165.74 204.043 167.063 204.043 168.694C204.043 170.325 205.307 171.647 206.866 171.647Z" fill="white"/>
<path d="M201.031 179.917C202.59 179.917 203.853 178.595 203.853 176.964C203.853 175.333 202.59 174.01 201.031 174.01C199.472 174.01 198.208 175.333 198.208 176.964C198.208 178.595 199.472 179.917 201.031 179.917Z" fill="white"/>
<path d="M195.197 188.975C196.756 188.975 198.019 187.653 198.019 186.022C198.019 184.39 196.756 183.068 195.197 183.068C193.638 183.068 192.374 184.39 192.374 186.022C192.374 187.653 193.638 188.975 195.197 188.975Z" fill="white"/>
<path d="M189.366 197.245C190.925 197.245 192.189 195.923 192.189 194.292C192.189 192.661 190.925 191.338 189.366 191.338C187.807 191.338 186.543 192.661 186.543 194.292C186.543 195.923 187.807 197.245 189.366 197.245Z" fill="white"/>
<path d="M195.197 171.647C196.756 171.647 198.019 170.325 198.019 168.694C198.019 167.063 196.756 165.74 195.197 165.74C193.638 165.74 192.374 167.063 192.374 168.694C192.374 170.325 193.638 171.647 195.197 171.647Z" fill="white"/>
<path d="M189.366 179.917C190.925 179.917 192.189 178.595 192.189 176.964C192.189 175.333 190.925 174.01 189.366 174.01C187.807 174.01 186.543 175.333 186.543 176.964C186.543 178.595 187.807 179.917 189.366 179.917Z" fill="white"/>
<path d="M183.531 188.975C185.09 188.975 186.354 187.653 186.354 186.022C186.354 184.39 185.09 183.068 183.531 183.068C181.972 183.068 180.708 184.39 180.708 186.022C180.708 187.653 181.972 188.975 183.531 188.975Z" fill="white"/>
<path d="M177.697 197.245C179.256 197.245 180.519 195.923 180.519 194.292C180.519 192.661 179.256 191.338 177.697 191.338C176.138 191.338 174.874 192.661 174.874 194.292C174.874 195.923 176.138 197.245 177.697 197.245Z" fill="white"/>
<path d="M183.531 171.647C185.09 171.647 186.354 170.325 186.354 168.694C186.354 167.063 185.09 165.74 183.531 165.74C181.972 165.74 180.708 167.063 180.708 168.694C180.708 170.325 181.972 171.647 183.531 171.647Z" fill="white"/>
<path d="M177.697 179.917C179.256 179.917 180.519 178.595 180.519 176.964C180.519 175.333 179.256 174.01 177.697 174.01C176.138 174.01 174.874 175.333 174.874 176.964C174.874 178.595 176.138 179.917 177.697 179.917Z" fill="white"/>
<path d="M171.862 188.975C173.421 188.975 174.685 187.653 174.685 186.022C174.685 184.39 173.421 183.068 171.862 183.068C170.303 183.068 169.04 184.39 169.04 186.022C169.04 187.653 170.303 188.975 171.862 188.975Z" fill="white"/>
<path d="M168.854 194.274C168.855 194.763 168.739 195.245 168.517 195.676C168.295 196.107 167.973 196.473 167.582 196.741C166.286 196.486 164.983 196.209 163.686 195.921C163.438 195.539 163.279 195.1 163.222 194.641C163.165 194.182 163.212 193.716 163.359 193.28C163.506 192.843 163.748 192.449 164.068 192.129C164.387 191.809 164.774 191.572 165.197 191.436C165.62 191.301 166.067 191.272 166.503 191.351C166.938 191.43 167.35 191.615 167.705 191.891C168.06 192.167 168.348 192.527 168.546 192.94C168.743 193.354 168.845 193.811 168.844 194.274H168.854Z" fill="white"/>
<path d="M174.688 168.694C174.688 169.477 174.391 170.228 173.862 170.782C173.332 171.336 172.614 171.647 171.866 171.647C171.117 171.647 170.399 171.336 169.87 170.782C169.34 170.228 169.043 169.477 169.043 168.694C169.042 168.353 169.099 168.014 169.211 167.694L174.221 167.097C174.522 167.57 174.684 168.125 174.688 168.694Z" fill="white"/>
<path d="M166.028 179.917C167.587 179.917 168.85 178.595 168.85 176.964C168.85 175.333 167.587 174.01 166.028 174.01C164.469 174.01 163.205 175.333 163.205 176.964C163.205 178.595 164.469 179.917 166.028 179.917Z" fill="white"/>
<path d="M160.196 188.975C161.755 188.975 163.019 187.653 163.019 186.022C163.019 184.39 161.755 183.068 160.196 183.068C158.637 183.068 157.374 184.39 157.374 186.022C157.374 187.653 158.637 188.975 160.196 188.975Z" fill="white"/>
<path d="M157.185 194.274C157.187 194.308 157.187 194.343 157.185 194.378C155.384 193.925 153.596 193.45 151.842 192.961C152.126 192.366 152.592 191.888 153.168 191.606C153.743 191.323 154.392 191.252 155.01 191.404C155.629 191.556 156.18 191.922 156.575 192.443C156.97 192.964 157.185 193.609 157.185 194.274Z" fill="white"/>
<path d="M163.02 168.694C163.014 169.442 162.737 170.159 162.245 170.702C161.753 171.244 161.083 171.572 160.369 171.617C159.656 171.663 158.953 171.424 158.401 170.948C157.85 170.472 157.491 169.795 157.398 169.053L163.006 168.413C163.016 168.506 163.02 168.6 163.02 168.694Z" fill="white"/>
<path d="M154.362 179.917C155.921 179.917 157.185 178.595 157.185 176.964C157.185 175.333 155.921 174.01 154.362 174.01C152.803 174.01 151.54 175.333 151.54 176.964C151.54 178.595 152.803 179.917 154.362 179.917Z" fill="white"/>
<path d="M148.528 188.975C150.087 188.975 151.351 187.653 151.351 186.022C151.351 184.39 150.087 183.068 148.528 183.068C146.969 183.068 145.706 184.39 145.706 186.022C145.706 187.653 146.969 188.975 148.528 188.975Z" fill="white"/>
<path d="M151.165 169.748C150.979 170.259 150.66 170.705 150.246 171.038C149.831 171.37 149.336 171.576 148.816 171.631C148.296 171.686 147.771 171.589 147.301 171.351C146.831 171.112 146.433 170.741 146.152 170.28C147.803 170.107 149.467 169.931 151.165 169.748Z" fill="white"/>
<path d="M142.694 179.917C144.253 179.917 145.516 178.595 145.516 176.964C145.516 175.333 144.253 174.01 142.694 174.01C141.135 174.01 139.871 175.333 139.871 176.964C139.871 178.595 141.135 179.917 142.694 179.917Z" fill="white"/>
<path d="M139.685 186.022C139.685 186.589 139.528 187.145 139.234 187.622C138.939 188.098 138.519 188.476 138.024 188.709C136.752 188.274 135.532 187.842 134.373 187.421C134.171 187.025 134.057 186.587 134.042 186.138C134.026 185.69 134.107 185.244 134.281 184.833C134.454 184.423 134.715 184.06 135.043 183.77C135.371 183.481 135.757 183.274 136.173 183.164C136.589 183.055 137.023 183.046 137.443 183.138C137.862 183.23 138.256 183.422 138.595 183.697C138.933 183.972 139.207 184.325 139.396 184.728C139.585 185.13 139.684 185.573 139.685 186.022Z" fill="white"/>
<path d="M131.028 179.917C132.587 179.917 133.851 178.595 133.851 176.964C133.851 175.333 132.587 174.01 131.028 174.01C129.469 174.01 128.206 175.333 128.206 176.964C128.206 178.595 129.469 179.917 131.028 179.917Z" fill="white"/>
<path d="M224.365 197.245C225.924 197.245 227.188 195.923 227.188 194.292C227.188 192.661 225.924 191.338 224.365 191.338C222.806 191.338 221.542 192.661 221.542 194.292C221.542 195.923 222.806 197.245 224.365 197.245Z" fill="white"/>
<path d="M236.034 197.245C237.593 197.245 238.857 195.923 238.857 194.292C238.857 192.661 237.593 191.338 236.034 191.338C234.475 191.338 233.211 192.661 233.211 194.292C233.211 195.923 234.475 197.245 236.034 197.245Z" fill="white"/>
<path d="M247.7 197.245C249.259 197.245 250.522 195.923 250.522 194.292C250.522 192.661 249.259 191.338 247.7 191.338C246.141 191.338 244.877 192.661 244.877 194.292C244.877 195.923 246.141 197.245 247.7 197.245Z" fill="white"/>
<path d="M259.369 197.245C260.927 197.245 262.191 195.923 262.191 194.292C262.191 192.661 260.927 191.338 259.369 191.338C257.81 191.338 256.546 192.661 256.546 194.292C256.546 195.923 257.81 197.245 259.369 197.245Z" fill="white"/>
<path d="M271.034 197.245C272.593 197.245 273.857 195.923 273.857 194.292C273.857 192.661 272.593 191.338 271.034 191.338C269.475 191.338 268.211 192.661 268.211 194.292C268.211 195.923 269.475 197.245 271.034 197.245Z" fill="white"/>
<path d="M284.549 192.058C284.233 193.784 283.927 195.461 283.638 197.072C283.338 197.187 283.022 197.245 282.703 197.245C282.246 197.247 281.795 197.132 281.39 196.912C280.984 196.691 280.636 196.371 280.375 195.979C280.114 195.587 279.947 195.134 279.89 194.66C279.832 194.186 279.885 193.704 280.045 193.256C280.204 192.808 280.465 192.407 280.805 192.088C281.145 191.769 281.554 191.54 281.997 191.422C282.44 191.305 282.903 191.301 283.348 191.412C283.792 191.522 284.204 191.744 284.549 192.058Z" fill="white"/>
<path d="M221.357 202.954C221.357 203.671 221.108 204.363 220.655 204.902C220.203 205.44 219.578 205.787 218.899 205.878C218.62 204.015 218.335 202.058 218.049 200.047C218.209 200.015 218.371 200 218.534 200.001C219.282 200.001 220 200.313 220.529 200.867C221.058 201.42 221.356 202.171 221.357 202.954Z" fill="white"/>
<path d="M230.2 205.907C231.759 205.907 233.022 204.585 233.022 202.954C233.022 201.323 231.759 200 230.2 200C228.641 200 227.377 201.323 227.377 202.954C227.377 204.585 228.641 205.907 230.2 205.907Z" fill="white"/>
<path d="M241.869 205.907C243.427 205.907 244.691 204.585 244.691 202.954C244.691 201.323 243.427 200 241.869 200C240.31 200 239.046 201.323 239.046 202.954C239.046 204.585 240.31 205.907 241.869 205.907Z" fill="white"/>
<path d="M253.534 205.907C255.093 205.907 256.356 204.585 256.356 202.954C256.356 201.323 255.093 200 253.534 200C251.975 200 250.711 201.323 250.711 202.954C250.711 204.585 251.975 205.907 253.534 205.907Z" fill="white"/>
<path d="M265.203 205.907C266.761 205.907 268.025 204.585 268.025 202.954C268.025 201.323 266.761 200 265.203 200C263.644 200 262.38 201.323 262.38 202.954C262.38 204.585 263.644 205.907 265.203 205.907Z" fill="white"/>
<path d="M276.868 205.907C278.426 205.907 279.69 204.585 279.69 202.954C279.69 201.323 278.426 200 276.868 200C275.309 200 274.045 201.323 274.045 202.954C274.045 204.585 275.309 205.907 276.868 205.907Z" fill="white"/>
<path d="M224.365 214.177C225.924 214.177 227.188 212.855 227.188 211.224C227.188 209.593 225.924 208.271 224.365 208.271C222.806 208.271 221.542 209.593 221.542 211.224C221.542 212.855 222.806 214.177 224.365 214.177Z" fill="white"/>
<path d="M236.034 214.177C237.593 214.177 238.857 212.855 238.857 211.224C238.857 209.593 237.593 208.271 236.034 208.271C234.475 208.271 233.211 209.593 233.211 211.224C233.211 212.855 234.475 214.177 236.034 214.177Z" fill="white"/>
<path d="M247.7 214.177C249.259 214.177 250.522 212.855 250.522 211.224C250.522 209.593 249.259 208.271 247.7 208.271C246.141 208.271 244.877 209.593 244.877 211.224C244.877 212.855 246.141 214.177 247.7 214.177Z" fill="white"/>
<path d="M259.369 214.177C260.927 214.177 262.191 212.855 262.191 211.224C262.191 209.593 260.927 208.271 259.369 208.271C257.81 208.271 256.546 209.593 256.546 211.224C256.546 212.855 257.81 214.177 259.369 214.177Z" fill="white"/>
<path d="M271.034 214.177C272.593 214.177 273.857 212.855 273.857 211.224C273.857 209.593 272.593 208.271 271.034 208.271C269.475 208.271 268.211 209.593 268.211 211.224C268.211 212.855 269.475 214.177 271.034 214.177Z" fill="white"/>
<path d="M281.684 208.469C281.368 210.451 281.11 212.156 280.931 213.505C280.55 213.179 280.256 212.754 280.08 212.272C279.904 211.791 279.852 211.27 279.928 210.761C280.004 210.252 280.206 209.772 280.514 209.37C280.822 208.968 281.226 208.657 281.684 208.469Z" fill="white"/>
<path d="M233.012 220.278C233.012 220.848 232.855 221.405 232.559 221.883C232.263 222.362 231.841 222.74 231.344 222.973C230.344 222.861 229.371 222.724 228.422 222.58C228.05 222.267 227.761 221.861 227.58 221.399C227.399 220.937 227.333 220.435 227.388 219.94C227.444 219.444 227.618 218.971 227.895 218.565C228.172 218.159 228.543 217.833 228.973 217.617C229.403 217.401 229.878 217.303 230.354 217.332C230.831 217.361 231.292 217.515 231.696 217.781C232.099 218.047 232.432 218.415 232.663 218.852C232.893 219.288 233.015 219.779 233.015 220.278H233.012Z" fill="white"/>
<path d="M241.869 223.235C243.427 223.235 244.691 221.913 244.691 220.282C244.691 218.651 243.427 217.328 241.869 217.328C240.31 217.328 239.046 218.651 239.046 220.282C239.046 221.913 240.31 223.235 241.869 223.235Z" fill="white"/>
<path d="M253.534 223.235C255.093 223.235 256.356 221.913 256.356 220.282C256.356 218.651 255.093 217.328 253.534 217.328C251.975 217.328 250.711 218.651 250.711 220.282C250.711 221.913 251.975 223.235 253.534 223.235Z" fill="white"/>
<path d="M268.025 220.278C268.025 220.895 267.841 221.496 267.499 221.998C266.206 222.214 264.851 222.415 263.445 222.591C263.072 222.28 262.78 221.874 262.598 221.413C262.415 220.951 262.347 220.449 262.4 219.953C262.454 219.456 262.627 218.982 262.903 218.575C263.179 218.167 263.549 217.84 263.979 217.623C264.409 217.406 264.885 217.306 265.361 217.334C265.838 217.361 266.3 217.515 266.705 217.78C267.109 218.046 267.443 218.414 267.674 218.851C267.906 219.288 268.027 219.779 268.028 220.278H268.025Z" fill="white"/>
<path d="M279.137 218.523C278.003 219.267 276.259 219.962 274.063 220.58C274.057 220.48 274.057 220.379 274.063 220.278C274.062 219.657 274.248 219.051 274.596 218.547C274.944 218.043 275.435 217.667 275.999 217.472C276.563 217.277 277.172 217.274 277.738 217.463C278.304 217.652 278.798 218.022 279.151 218.523H279.137Z" fill="white"/>
<path d="M215.34 175.881C225.397 161.898 231.396 148.229 237.234 136.156" stroke="#D8BAA3" stroke-width="4" stroke-miterlimit="10"/>
<path d="M102.586 170.953C105.927 170.201 117.682 170.266 123.699 171.974L122.561 182.406C122.561 182.406 116.902 185.306 113.164 183.698C109.427 182.09 106.608 178.924 103.947 179.791C101.286 180.658 98.0129 182.852 96.4142 182.453C94.5091 182.008 92.6921 181.22 91.0439 180.126C91.68 178.903 98.4667 172.287 102.586 170.953Z" fill="#FFCFC9"/>
<path d="M245.647 67.7187C246.578 71.6253 250.312 88.5576 250.312 91.162C250.312 93.7664 275.998 90.7519 280.976 86.1942C280.976 86.1942 270.851 74.388 268.362 56.6464L245.647 67.7187Z" fill="#FFCFC9"/>
<path d="M265.209 58.4629C265.209 58.4629 257.374 75.5643 241.095 74.2009C240.551 74.1564 240.026 73.9714 239.567 73.6626C239.108 73.3537 238.729 72.9306 238.465 72.4311C236.23 68.1863 230.303 56.2434 230.519 49.1532C230.787 40.4443 234.329 24.2962 234.329 24.2962C234.329 24.2962 254.153 20.0011 265.158 39.232C271.322 50.0238 265.209 58.4629 265.209 58.4629Z" fill="#FFCFC9"/>
<path d="M250.901 43.0164H222.107" stroke="#D8BAA3" stroke-width="4" stroke-miterlimit="10"/>
<path d="M225.155 54.3945C226.714 54.3945 227.978 50.7289 227.978 46.2071C227.978 41.6854 226.714 38.0198 225.155 38.0198C223.597 38.0198 222.333 41.6854 222.333 46.2071C222.333 50.7289 223.597 54.3945 225.155 54.3945Z" stroke="#D8BAA3" stroke-width="4" stroke-miterlimit="10"/>
<path d="M302.78 75.0205C302.78 75.0205 279.934 81.9308 249.17 84.0352C249.17 84.0352 238.461 72.4305 250.8 58.1098C257.855 49.9225 249.208 39.5444 249.208 39.5444C239.324 36.3069 227.579 35.9471 227.579 35.9471C223.656 29.9145 223.55 21.3495 234.455 12.8923C245.753 4.1438 267.891 -4.59393 280.955 9.2591C288.44 17.1731 283.362 33.0369 292.94 37.8501C323.089 52.9621 302.78 75.0205 302.78 75.0205Z" fill="#2B3855"/>
<path d="M237.863 12.8785C249.17 4.13001 271.298 -4.60772 284.362 9.24531C291.847 17.1593 287.519 35.7787 297.083 40.5918" stroke="#2B3855" stroke-width="3" stroke-miterlimit="10"/>
<path d="M224.95 35.9333C221.027 29.9007 222.671 19.5622 234.855 13.2706" stroke="#2B3855" stroke-width="3" stroke-miterlimit="10"/>
<path d="M244.013 83.9855C244.013 83.9855 234.806 71.6685 248.022 58.2292C255.586 50.5454 249.105 38.0198 249.105 38.0198" stroke="#2B3855" stroke-width="3" stroke-miterlimit="10"/>
<path d="M342.731 160.87C340.905 168.064 316.464 214.469 314.04 279.993C313.708 289.1 310.018 297.72 303.744 304.043C297.47 310.365 289.099 313.899 280.388 313.904H170.119C166.368 313.904 163.817 315.48 162.211 318.037C162.071 318.25 161.869 318.41 161.635 318.495C161.401 318.579 161.148 318.584 160.911 318.507C160.675 318.43 160.468 318.277 160.321 318.069C160.174 317.861 160.094 317.609 160.094 317.35V311.382C160.094 303.468 166.244 295.598 173.822 295.619L207.487 295.648C222.56 295.695 231.482 284.662 232.052 268.902C234.156 210.699 252.048 173.859 260.155 161.931C261.596 159.816 263.499 158.092 265.706 156.903C267.913 155.714 270.359 155.094 272.842 155.096H339.936C342.768 155.1 343.46 157.995 342.731 160.87Z" fill="white" stroke="#3E4D70" stroke-width="6" stroke-miterlimit="10" stroke-linecap="round"/>
<path d="M341.789 160.438H276.198C273.841 160.434 271.518 161.02 269.422 162.146C267.326 163.273 265.517 164.907 264.147 166.913C256.419 178.288 239.94 224.566 237.922 276.953C237.672 283.315 235.079 289.33 230.687 293.738C226.295 298.145 220.443 300.605 214.357 300.601H172.647C169.317 300.601 166.123 301.986 163.768 304.449C161.414 306.913 160.091 310.254 160.091 313.739" stroke="#3E4D70" stroke-width="6" stroke-miterlimit="10" stroke-linecap="round"/>
<path d="M240.868 337.506H228.835V453.38H240.868V337.506Z" fill="#F0E1D4" stroke="#D8BAA3" stroke-width="6" stroke-miterlimit="10" stroke-linecap="round"/>
<path d="M209.094 465.816C209.094 459.028 213.941 453.524 219.92 453.524H249.831C255.81 453.524 260.661 459.028 260.661 465.816" stroke="#D8BAA3" stroke-width="6" stroke-miterlimit="10" stroke-linecap="round"/>
<path d="M259.977 480.219C264.636 480.219 268.414 476.267 268.414 471.392C268.414 466.516 264.636 462.564 259.977 462.564C255.317 462.564 251.54 466.516 251.54 471.392C251.54 476.267 255.317 480.219 259.977 480.219Z" fill="white" stroke="#D8BAA3" stroke-width="6" stroke-miterlimit="10" stroke-linecap="round"/>
<path d="M210.125 480.219C214.784 480.219 218.562 476.267 218.562 471.392C218.562 466.516 214.784 462.564 210.125 462.564C205.465 462.564 201.688 466.516 201.688 471.392C201.688 476.267 205.465 480.219 210.125 480.219Z" fill="white" stroke="#D8BAA3" stroke-width="6" stroke-miterlimit="10" stroke-linecap="round"/>
<path d="M221.667 314.113H248.026V331.408C248.026 332.712 247.781 334.002 247.304 335.206C246.827 336.41 246.129 337.505 245.248 338.426C244.367 339.348 243.321 340.079 242.171 340.578C241.02 341.076 239.786 341.333 238.541 341.333H231.159C229.912 341.334 228.678 341.078 227.526 340.579C226.374 340.081 225.328 339.35 224.446 338.427C223.564 337.505 222.865 336.411 222.388 335.206C221.911 334 221.666 332.709 221.667 331.405V314.113Z" fill="white" stroke="#D8BAA3" stroke-width="6" stroke-miterlimit="10" stroke-linecap="round"/>
<path d="M186.034 465.751C186.034 462.508 187.266 459.397 189.458 457.103C191.65 454.809 194.623 453.521 197.724 453.521H275.768C278.868 453.521 281.841 454.809 284.033 457.103C286.226 459.397 287.457 462.508 287.457 465.751" stroke="#D8BAA3" stroke-width="6" stroke-miterlimit="10" stroke-linecap="round"/>
<path d="M183.652 480.219C188.312 480.219 192.089 476.267 192.089 471.392C192.089 466.516 188.312 462.564 183.652 462.564C178.992 462.564 175.215 466.516 175.215 471.392C175.215 476.267 178.992 480.219 183.652 480.219Z" fill="white" stroke="#D8BAA3" stroke-width="6" stroke-miterlimit="10" stroke-linecap="round"/>
<path d="M288.857 480.219C293.517 480.219 297.294 476.267 297.294 471.392C297.294 466.516 293.517 462.564 288.857 462.564C284.197 462.564 280.42 466.516 280.42 471.392C280.42 476.267 284.197 480.219 288.857 480.219Z" fill="white" stroke="#D8BAA3" stroke-width="6" stroke-miterlimit="10" stroke-linecap="round"/>
<path d="M109.5 129.5L91 51H148L164.5 128.5L109.5 129.5Z" stroke="white"/>
<path d="M22 57H31.5" stroke="white"/>
<path d="M47 57H51" stroke="white"/>
<path d="M57 57H61" stroke="white"/>
<path d="M67 57H71" stroke="white"/>
<path d="M77 57H81" stroke="white"/>
<path d="M44 101H52.5" stroke="white"/>
<path d="M59 101H67.5" stroke="white"/>
<path d="M74 101H82.5" stroke="white"/>
<path d="M46.5 129.5L40.5 108.5H88.5L95.5 130" stroke="white"/>
<path d="M37.5 119L36 122L38.5 123.5" stroke="white"/>
<path d="M97.0966 118.732L99.8251 120.436L97.626 122.874" stroke="white"/>
<path d="M97.5 58H138" stroke="white"/>
<path d="M107 90H147.5" stroke="white"/>
<path d="M99 62H118" stroke="white"/>
<path d="M108.5 94H127.5" stroke="white"/>
<path d="M100.5 65.5H120.5" stroke="white"/>
<path d="M110 97.5H130" stroke="white"/>
<path d="M102 69H123" stroke="white"/>
<path d="M111.5 101H132.5" stroke="white"/>
<path d="M103 74H114" stroke="white"/>
<path d="M112.5 106H123.5" stroke="white"/>
<path d="M105 79H119" stroke="white"/>
<path d="M114.5 111H128.5" stroke="white"/>
<path d="M107 82H121" stroke="white"/>
<path d="M116.5 114H130.5" stroke="white"/>
<path d="M109 85H123" stroke="white"/>
<path d="M118.5 117H132.5" stroke="white"/>
<path d="M117.332 72C113.862 73.9899 116.014 75.0616 117.523 75.3486" stroke="white" stroke-width="0.5"/>
<path d="M126.832 104C123.362 105.99 125.514 107.062 127.023 107.349" stroke="white" stroke-width="0.5"/>
<path d="M120 75.5C123.791 73.7236 121.679 72.5047 120.149 72.1173" stroke="white" stroke-width="0.5"/>
<path d="M129.5 107.5C133.291 105.724 131.179 104.505 129.649 104.117" stroke="white" stroke-width="0.5"/>
</svg>
