<svg width="120" height="120" viewBox="0 0 120 120" fill="none" xmlns="http://www.w3.org/2000/svg">
<path d="M85.2263 53.6385C83.3112 47.7351 75.4584 47.7351 73.9266 52.6206C72.3946 57.506 77.5657 60.3557 85.6096 63.2059C93.6534 66.0559 98.6332 73.5878 97.6755 80.3051C96.7178 87.0223 94.0365 95.7758 78.1404 95.7758C68.2053 95.7758 62.684 89.1757 59.94 84.226L68.9472 78.473C68.9472 78.473 72.0116 85.3942 77.7571 85.3942C83.5028 85.3942 85.8009 83.3587 85.8009 78.6767C85.8009 72.9771 67.2232 70.9416 64.3504 61.1704C61.4777 51.3993 65.3081 37.5572 78.7145 38.5748C87.0938 39.211 91.8069 43.5842 94.1636 46.7747L85.2263 53.6385Z" fill="#1B262C"/>
<path d="M43.4746 39.5933C43.4746 39.5933 43.4746 73.9953 43.4746 78.6773C43.4746 83.359 39.6442 85.8022 35.8137 84.9877C31.9833 84.1735 30.2596 79.2881 30.2596 79.2881L21.4497 85.5985C21.4497 85.5985 23.3648 94.9622 35.4307 95.7767C47.4967 96.5909 54.3912 88.8555 54.3912 82.3414C54.3912 75.8273 54.3912 39.5933 54.3912 39.5933H43.4746Z" fill="#1B262C"/>
<path d="M0 0V111.639C2.85071 114.707 5.95677 117.504 9.28215 120H88.5721C91.229 118.006 93.7454 115.818 96.1074 113.451H6.16185V6.54924H106.737V99.8955C109.164 95.9134 111.234 91.6627 112.902 87.197V0H0Z" fill="#1B262C"/>
<path d="M109.083 119.743C115.112 119.743 120 114.548 120 108.14C120 101.732 115.112 96.5374 109.083 96.5374C103.054 96.5374 98.1667 101.732 98.1667 108.14C98.1667 114.548 103.054 119.743 109.083 119.743Z" fill="#1B262C"/>
</svg>
