<svg width="120" height="120" viewBox="0 0 120 120" fill="none" xmlns="http://www.w3.org/2000/svg">
<path fill-rule="evenodd" clip-rule="evenodd" d="M120 15C120 6.72117 113.279 0 105 0H15C6.72117 0 0 6.72117 0 15V105C0 113.279 6.72117 120 15 120H105C113.279 120 120 113.279 120 105V15Z" fill="white"/>
<path d="M34.4115 41.8652H14.3115V102.325H34.4115V41.8652Z" fill="#1B262C"/>
<path d="M24.495 12.7148C17.6182 12.7148 13.125 17.2359 13.125 23.1616C13.125 28.9629 17.4816 33.6087 24.229 33.6087H24.3588C31.3673 33.6087 35.7298 28.9629 35.7298 23.1616C35.5997 17.2359 31.3678 12.7148 24.495 12.7148Z" fill="#1B262C"/>
<path d="M83.7337 40.459C73.072 40.459 68.2964 46.3223 65.6222 50.4408V41.8807H45.5273C45.7938 47.5519 45.5273 102.34 45.5273 102.34H65.622V68.5753C65.622 66.768 65.7518 64.9613 66.2845 63.6696C67.7348 60.0602 71.0435 56.3215 76.5954 56.3215C83.8638 56.3215 86.7757 61.8677 86.7757 69.9919V102.34H106.871V67.6692C106.871 49.098 96.956 40.459 83.7337 40.459Z" fill="#1B262C"/>
</svg>
