<svg width="51" height="50" viewBox="0 0 51 50" fill="none" xmlns="http://www.w3.org/2000/svg">
<g clip-path="url(#clip0)">
<path d="M44.04 28.5155H6.51688C4.06672 28.5155 2.07335 30.4869 2.07335 32.9101V45.6055C2.07335 48.0287 4.06672 50.0001 6.51688 50.0001H44.04C46.4902 50.0001 48.4835 48.0287 48.4835 45.6055V32.9101C48.4835 30.4868 46.4902 28.5155 44.04 28.5155ZM14.0183 45.597C12.8862 45.6032 12.1138 45.6061 11.5819 45.6061C10.4793 45.6061 10.4088 45.5941 10.3022 45.5759C9.59101 45.4554 9.07122 44.8456 9.07122 44.1322V34.3746C9.07122 33.5657 9.73439 32.9098 10.5524 32.9098C11.3704 32.9098 12.0336 33.5657 12.0336 34.3746V42.6749C12.626 42.6738 13.3319 42.671 14.0019 42.6673H14.0103C14.8245 42.6673 15.4868 43.3177 15.4913 44.124C15.4958 44.933 14.8363 45.5924 14.0183 45.597ZM20.9227 44.1404C20.9227 44.9494 20.2595 45.6052 19.4415 45.6052C18.6235 45.6052 17.9603 44.9494 17.9603 44.1404V34.3746C17.9603 33.5657 18.6235 32.9098 19.4415 32.9098C20.2595 32.9098 20.9227 33.5657 20.9227 34.3746V44.1404ZM33.2996 34.8543L30.0755 44.4527C30.0744 44.456 30.0733 44.4593 30.0721 44.4627C29.8388 45.1413 29.1951 45.6003 28.4703 45.6051C28.4664 45.6052 28.4626 45.6052 28.4588 45.6052C27.7387 45.6052 27.0945 45.1558 26.8531 44.484C26.8519 44.4807 26.8508 44.4775 26.8496 44.4741L23.4735 34.855C23.2052 34.0908 23.6142 33.2561 24.387 32.9907C25.1599 32.7258 26.0038 33.1301 26.2719 33.8943L28.4327 40.0505L30.4883 33.9308C30.7463 33.1629 31.5844 32.7472 32.3609 33.0024C33.1373 33.2574 33.5575 34.0867 33.2996 34.8543ZM41.1791 37.7926C41.9971 37.7926 42.6602 38.4485 42.6602 39.2575C42.6602 40.0665 41.9971 40.7224 41.1791 40.7224H38.8063V42.6755H41.4859C42.3039 42.6755 42.967 43.3314 42.967 44.1404C42.967 44.9494 42.3039 45.6052 41.4859 45.6052H37.3251C36.5071 45.6052 35.844 44.9494 35.844 44.1404V34.3746C35.844 33.5657 36.5071 32.9098 37.3251 32.9098H41.4859C42.3039 32.9098 42.967 33.5657 42.967 34.3746C42.967 35.1836 42.3039 35.8395 41.4859 35.8395H38.8063V37.7926H41.1791Z" fill="#050505"/>
<path d="M27.2011 23.1397L25.2785 20.6235L23.356 23.1396C22.7362 23.9507 22.6891 24.8565 22.8842 25.5857H27.6728C27.8679 24.8565 27.8208 23.9507 27.2011 23.1397Z" fill="#050505"/>
<path d="M20.9926 21.3738L24.0969 17.3112C24.3768 16.9448 24.8143 16.7294 25.2786 16.7294C25.7429 16.7294 26.1803 16.9448 26.4602 17.3112L29.5645 21.3739C30.5025 22.6015 30.8841 24.1144 30.6913 25.5863H36.2334C38.2625 22.9218 39.0851 19.549 38.3639 16.282C37.548 12.5865 34.9474 10.1699 33.4699 9.05826C33.0112 8.71334 32.392 8.66265 31.8824 8.92828C31.3727 9.194 31.0651 9.7278 31.0937 10.2969C31.131 11.0389 30.6676 11.7369 29.9131 12.0751C29.6153 12.2085 29.3123 12.2677 29.0292 12.2832C29.8854 9.27633 29.7801 6.63861 28.7122 4.42394C27.1397 1.16307 24.0372 0.117059 23.906 0.07409C23.5235 -0.0507159 23.1056 -0.0152663 22.7491 0.170771C22.3928 0.356808 22.1281 0.67976 22.0167 1.06277C22.0022 1.11287 20.5133 6.11145 16.3968 9.72497C14.3089 11.558 12.8977 13.7008 12.316 15.9217C12.0229 17.0406 11.7498 18.8051 12.1134 20.8572C12.4212 22.5947 13.1206 24.181 14.1929 25.5863H19.8658C19.6729 24.1144 20.0545 22.6014 20.9926 21.3738Z" fill="#050505"/>
</g>
<defs>
<clipPath id="clip0">
<rect width="50.557" height="50" fill="white"/>
</clipPath>
</defs>
</svg>
