<svg width="120" height="120" viewBox="0 0 120 120" fill="none" xmlns="http://www.w3.org/2000/svg">
<path d="M104.189 71.4346C102.276 72.3081 102.354 72.3236 101.342 70.098C100.05 67.2631 99.3621 64.2818 99.3027 61.0396C99.2537 58.2574 99.8844 55.6712 100.678 53.1344C101.311 51.117 100.487 50.4051 99.0401 50.2216C97.987 50.091 96.9006 50.1035 95.8451 50.2341C93.1005 50.5729 92.8302 50.8588 92.1016 54.0763C91.6692 55.9851 91.324 57.9093 90.6058 59.7214C88.8344 64.1821 86.8212 68.4783 84.7564 72.7433C84.3856 73.5112 84.0793 74.3379 83.5567 74.9939C82.0608 72.2894 81.4971 69.3021 81.3709 66.1685C81.2448 63.0754 82.03 60.2001 82.8924 57.3557C83.1834 56.3983 82.9414 55.8045 82.2565 55.391C81.9527 55.2077 81.6129 55.0366 81.2807 55.0054C79.5198 54.8376 77.764 54.8623 76.0466 55.4436C75.2742 55.7015 74.7696 56.224 74.5971 57.2715C74.2625 59.3201 73.7399 61.3095 73.0342 63.2245C71.0776 68.5277 69.1338 73.8402 67.1797 79.1468C65.4805 83.7569 63.807 88.3791 61.7937 92.806C61.6521 93.1198 61.5338 93.664 61.1785 93.5551C60.818 93.4462 60.9442 92.9116 60.9286 92.5448C60.8128 89.9336 61.4025 87.4435 61.9044 84.9504C62.7 81.0056 63.57 77.0794 64.4146 73.147C64.6566 72.0186 64.2498 71.26 63.4749 70.7191C62.3602 69.945 61.2504 69.9079 60.0431 70.9925C60.2079 69.3884 60.2799 67.9803 60.2232 66.5723C60.0946 63.4327 58.8895 61.3904 56.7915 60.9176C55.2596 60.5725 53.8101 61.1104 52.4404 61.8937C49.2479 63.7186 46.6812 66.4696 44.5235 69.8082C44.2712 70.1967 44.0164 70.5543 43.6508 70.7935C39.6011 73.4576 35.5538 76.1218 31.5144 78.8106C31.0717 79.109 30.7859 79.0251 30.4665 78.6116C28.4326 75.9787 26.0719 73.8057 23.7341 71.6018C20.4669 68.5182 17.0866 65.5962 14.2674 61.8783C12.6198 59.7023 11.2449 57.3179 10.5575 54.4395C9.43489 49.7331 10.2744 45.35 12.1435 41.1846C14.3551 36.2574 17.6351 32.4527 21.2522 29.0641C26.9961 23.6862 33.2959 19.415 39.9357 15.8994C47.3711 11.967 55.0844 9.43347 63.2997 9.81576C66.5541 9.96808 69.7128 10.6488 72.6119 12.573C74.6639 13.9347 76.0232 15.9024 76.4068 18.7902C76.8575 22.1722 76.1853 25.2966 74.942 28.2591C72.1642 34.8773 67.7488 39.565 62.53 43.2362C58.1841 46.2919 53.4959 48.2319 48.5346 49.2481C45.7927 49.8107 43.0405 50.1496 40.2831 49.6429C37.1189 49.0616 34.1942 47.7841 32.0292 44.7065C31.7793 44.3521 31.4627 44.1064 31.0379 44.3551C30.6028 44.6101 30.6363 45.0763 30.6774 45.524C30.7082 45.8316 30.778 46.1425 30.8679 46.435C31.4472 48.322 32.5311 49.7456 33.8002 50.9891C37.1009 54.2313 41.0117 55.1827 45.1181 55.2791C49.137 55.3755 53.0941 54.76 57.01 53.6286C65.8432 51.0796 73.2427 45.8477 78.6441 36.8825C81.8726 31.5233 83.9169 25.617 83.7365 18.8589C83.6208 14.5722 82.426 10.7859 79.8386 7.70856C76.7619 4.05583 72.944 2.21876 68.8477 1.11532C64.2855 -0.109491 59.6772 -0.283529 55.0224 0.387932C50.9726 0.972226 47.0155 1.97332 43.1639 3.57418C37.2707 6.02678 31.5785 9.03899 26.1308 12.7009C20.5492 16.4498 15.2892 20.743 10.6757 26.1206C6.59249 30.8798 3.08336 36.1304 1.10605 42.649C0.26166 45.4404 -0.345946 48.3098 0.220512 51.3283C0.946634 55.2139 2.53242 58.5775 4.6179 61.6114C7.77173 66.206 11.6413 69.8242 15.6319 73.2809C18.8373 76.0599 22.1919 78.5904 25.2711 81.5777C26.1438 82.4231 26.1386 82.4231 25.1114 83.0729C23.9117 83.8283 22.699 84.5556 21.52 85.3607C16.7651 88.6064 12.1696 92.1253 8.41827 97.0153C6.57229 99.4245 5.31839 102.129 4.73419 105.132C7.7875 110.64 11.4203 115.639 15.5267 120C22.5322 119.341 27.8949 114.939 31.8572 107.659C33.7702 104.143 34.6661 100.164 35.0034 95.9675C35.2995 92.2684 34.9879 88.687 34.0868 85.1557C33.9298 84.5339 33.3454 83.9154 33.5745 83.3683C33.7882 82.8646 34.432 82.6097 34.9056 82.2803C36.8158 80.9404 38.7313 79.6195 40.6983 78.2549C40.7833 78.7648 40.6184 79.0632 40.5465 79.3863C39.4187 84.3819 38.6335 89.4177 39.4909 94.6091C40.0239 97.8421 40.9121 100.885 42.6009 103.562C44.3387 106.316 48.2187 106.002 49.7941 103.487C51.29 101.1 52.2812 98.4076 53.3136 95.728C53.8801 94.2607 54.4 92.7688 54.9408 91.2857C54.8403 93.0701 54.8454 94.8108 54.8996 96.5456C54.9536 98.2553 55.1803 99.9433 55.9165 101.454C56.8021 103.269 58.4679 103.798 60.0153 102.828C61.6476 101.805 62.7598 100.12 63.6247 98.2925C67.3346 90.431 70.7767 82.4014 73.6268 74.0175C74.2344 72.2364 74.8575 70.4582 75.545 68.4781C75.6504 69.1278 75.7201 69.5256 75.7845 69.9236C76.4177 73.9182 77.5454 77.6982 79.1778 81.2513C79.5279 82.0129 79.4892 82.5383 79.0465 83.2686C77.543 85.74 75.8951 88.0653 74.2706 90.4152C72.9061 92.3924 71.4462 94.2825 70.2928 96.4584C69.258 98.4168 69.8525 100.422 71.5751 100.866C72.1053 101.003 72.6641 101.044 73.2074 101.034C76.2171 100.991 78.995 99.9058 81.5826 98.1277C85.0658 95.731 87.1309 92.2181 87.0355 87.2165C86.9917 84.9409 86.4819 82.7558 85.7225 80.6697C85.5552 80.2065 85.5473 79.8709 85.7971 79.4356C88.2096 75.2638 90.3411 70.8902 92.3005 66.389C92.6481 65.5965 92.8925 64.7164 93.4538 63.9426C93.5285 64.2565 93.5876 64.4526 93.6211 64.6546C94.2442 68.3849 95.0835 72.0311 96.6591 75.3605C97.0916 76.2714 96.8755 76.7343 96.2782 77.3436C94.2211 79.4544 92.486 81.9162 91.1239 84.7359C90.0632 86.9306 89.3371 89.2743 89.345 91.8453C89.3526 94.7052 91.1651 96.39 93.4745 95.7185C95.8818 95.0221 98.1139 93.8377 100.117 92.0691C104.481 88.2113 105.76 84.1421 104.393 78.4628C103.858 76.2277 103.868 76.2652 105.724 75.5875C109.784 74.1077 113.903 74.0455 118.043 74.8601C118.512 74.9532 118.975 75.0591 119.434 75.1802C119.675 73.4053 119.866 71.6084 120 69.7897C114.704 68.2267 109.416 69.038 104.189 71.4346ZM18.3999 111.427C17.2234 111.93 16.0005 112.145 14.7491 112.027C13.1914 111.877 12.2029 110.55 12.1023 108.554C11.989 106.254 12.553 104.177 13.387 102.157C14.9033 98.4885 17.4496 95.9987 20.0475 93.5554C22.5731 91.1774 25.2869 89.1473 28.0312 87.1734C28.8628 86.5766 28.8756 86.5828 29.066 87.7797C29.3132 89.3154 29.5347 90.854 29.4521 92.2499C29.6687 100.621 24.6329 108.762 18.3999 111.427ZM56.1893 69.215C55.7517 72.7433 54.7964 76.1036 53.7795 79.4234C52.3943 83.9559 51.0453 88.5097 49.3023 92.8681C48.9032 93.8722 48.4836 94.87 47.8375 95.6876C47.2274 96.4617 46.6866 96.3715 46.2645 95.4264C45.4406 93.5798 45.5436 91.5252 45.4098 90.0329C45.4485 82.5475 47.5288 76.4297 50.9554 70.9307C51.9131 69.3982 53.136 68.1517 54.7555 67.651C55.8547 67.3127 56.3617 67.8474 56.1893 69.215ZM80.1843 91.3762C79.0102 93.8258 77.3187 95.6069 75.2436 96.8752C75.0221 97.0088 74.7365 97.245 74.5357 96.9311C74.3453 96.6357 74.6515 96.4399 74.7905 96.2534C76.8528 93.5333 78.8893 90.7916 80.7249 87.8415C80.7532 87.7948 80.8227 87.7886 80.9797 87.708C80.9617 89.0729 80.7145 90.2727 80.1843 91.3762ZM94.4241 91.2706C94.1179 91.4446 93.7626 91.771 93.4639 91.4913C93.1345 91.1837 93.2656 90.6396 93.3661 90.2231C93.8347 88.3238 94.4655 86.5052 95.3355 84.8109C96.0666 83.3841 96.9731 82.1376 97.9692 80.9749C98.3708 80.5087 98.551 80.5647 98.6875 81.2361C98.8291 81.923 98.8419 82.61 98.8523 83.3094C98.8267 87.1362 97.2175 89.6822 94.4241 91.2706Z" fill="#1B262C"/>
</svg>
