<svg width="120" height="120" viewBox="0 0 120 120" fill="none" xmlns="http://www.w3.org/2000/svg">
<g clip-path="url(#clip0)">
<path d="M60 2.50012C26.85 2.50012 0 28.9001 0 61.4601C0 87.5151 17.19 109.61 41.025 117.4C44.025 117.955 45.125 116.13 45.125 114.565C45.125 113.165 45.075 109.455 45.05 104.54C28.36 108.095 24.84 96.6301 24.84 96.6301C22.11 89.8251 18.165 88.0051 18.165 88.0051C12.73 84.3501 18.585 84.4251 18.585 84.4251C24.61 84.8351 27.775 90.5001 27.775 90.5001C33.125 99.5151 41.82 96.9101 45.25 95.4051C45.79 91.5901 47.335 88.9951 49.05 87.5201C35.725 86.0451 21.72 80.9751 21.72 58.3851C21.72 51.9501 24.045 46.6901 27.895 42.5651C27.22 41.0751 25.195 35.0801 28.42 26.9601C28.42 26.9601 33.445 25.3801 44.92 33.0051C49.72 31.6951 54.82 31.0451 59.92 31.0151C65.02 31.0451 70.12 31.6951 74.92 33.0051C86.32 25.3801 91.345 26.9601 91.345 26.9601C94.57 35.0801 92.545 41.0751 91.945 42.5651C95.77 46.6901 98.095 51.9501 98.095 58.3851C98.095 81.0351 84.07 86.0201 70.72 87.4701C72.82 89.2401 74.77 92.8551 74.77 98.3801C74.77 106.27 74.695 112.61 74.695 114.525C74.695 116.07 75.745 117.915 78.82 117.325C102.825 109.585 120 87.4751 120 61.4601C120 28.9001 93.135 2.50012 60 2.50012Z" fill="#1B262C"/>
</g>
<defs>
<clipPath id="clip0">
<rect width="120" height="120" fill="white"/>
</clipPath>
</defs>
</svg>
