<svg width="120" height="120" viewBox="0 0 120 120" fill="none" xmlns="http://www.w3.org/2000/svg">
<path d="M105 0H15C6.71573 0 0 6.71573 0 15V105C0 113.284 6.71573 120 15 120H105C113.284 120 120 113.284 120 105V15C120 6.71573 113.284 0 105 0Z" fill="white"/>
<path d="M106.875 30.9239C103.426 32.4545 99.7202 33.4874 95.8294 33.9529C99.7986 31.5725 102.849 27.8021 104.286 23.3129C100.57 25.5171 96.4521 27.1159 92.07 27.9789C88.5636 24.2401 83.5631 21.9053 78.0327 21.9053C67.4096 21.9053 58.797 30.5179 58.797 41.1396C58.797 42.6466 58.9675 44.1138 59.296 45.5234C43.3098 44.7192 29.1388 37.0637 19.6521 25.425C17.9962 28.2659 17.048 31.5688 17.048 35.0959C17.048 41.7689 20.4424 47.6551 25.6038 51.1043C22.4524 51.0039 19.4872 50.1396 16.8921 48.6993C16.8911 48.7785 16.8911 48.8596 16.8911 48.9407C16.8911 58.2592 23.5216 66.0324 32.3194 67.8024C30.7053 68.2395 29.0055 68.4762 27.2534 68.4762C26.0124 68.4762 24.8085 68.3522 23.6353 68.1302C26.0822 75.77 33.1861 81.3317 41.601 81.487C35.02 86.6467 26.7262 89.7219 17.7126 89.7219C16.1617 89.7219 14.6307 89.6305 13.125 89.4506C21.6389 94.9103 31.7486 98.0949 42.61 98.0949C77.9874 98.0949 97.3345 68.7868 97.3345 43.3704C97.3345 42.5346 97.3152 41.7058 97.2796 40.8803C101.035 38.1678 104.298 34.7817 106.875 30.9239Z" fill="#1B262C"/>
</svg>
